<svg xmlns="http://www.w3.org/2000/svg" viewBox="0 0 64 64" role="img" aria-label="実績">
  <defs>
    <linearGradient id="g" x1="10" y1="8" x2="54" y2="58" gradientUnits="userSpaceOnUse">
      <stop offset="0" stop-color="#fff19e"/>
      <stop offset="0.55" stop-color="#ffffff"/>
      <stop offset="1" stop-color="#ffb02e"/>
    </linearGradient>
    <filter id="shadow" x="-20%" y="-20%" width="140%" height="140%">
      <feDropShadow dx="0" dy="3" stdDeviation="2.4" flood-color="#132033" flood-opacity="0.28"/>
    </filter>
  </defs>
  <circle cx="32" cy="32" r="29" fill="rgba(255,255,255,0.52)"/>
  <circle cx="32" cy="32" r="25" fill="url(#g)" filter="url(#shadow)"/>
  <path d="M15 19 C20 10 44 10 49 19" fill="none" stroke="#fff" stroke-width="3.5" stroke-linecap="round" opacity="0.82"/>
  <g fill="none" stroke="#17324d" stroke-width="3.6" stroke-linecap="round" stroke-linejoin="round">
    <path d="M23 18h18v10c0 8-4 14-9 16-5-2-9-8-9-16z" fill="rgba(255,255,255,0.35)"/><path d="M23 23h-7c1 8 4 12 9 13"/><path d="M41 23h7c-1 8-4 12-9 13"/><path d="M32 44v7"/><path d="M24 51h16"/>
  </g>
</svg>